<svg id="Layer_1" data-name="Layer 1" xmlns="http://www.w3.org/2000/svg" viewBox="0 0 2695.66 1166.67"><title>title</title><path d="M855.21,560.68c3.23-9,7.07-17.89,9.71-27.09,1.69-5.86,3.89-12.73-.5-18.11-4-4.87-3.82-9.3-2.5-14.81,1.48-6.16-.21-12.6-4.75-16.54a52.64,52.64,0,0,0-26.46-12.65c-19.51-3.08-39.15-.46-58.69-1.24-10.47-.42-21.65-1.45-31-5.58-8.17-3.59-15.7-7.7-24.8-8.72-11.69-1.31-18.12,2.65-19.09,12.09-.21,2.08-1.86,4.09-3.09,6-9.12,14-16.51,28.4-16.2,45.88.17,9.87-1.43,19.77-1.83,29.67-.61,14.77-6.06,28.46-9.41,42.58C660.46,617.92,653.38,643.5,646,669c-4,13.69-9.47,26.92-14,40.43-4.35,12.81-9.83,25.46-12.16,38.65-2.24,12.66-7.14,24.1-11.12,36q-8.35,25-15.76,50.26c-3,10.46-4.46,21.44-8,31.7-3.08,8.89-7.24,17.65-14.9,25.82-.8-2.89-1.58-4.54-1.64-6.21-.16-3.94.62-8,0-11.83-2.76-16.65-6.09-33.2-8.82-49.85-1.93-11.75-3.11-23.61-4.82-35.39-1.86-12.75-3.87-25.47-5.94-38.19-2-12.37-.63-25.28-5.92-37.11-3.12-7-6.32-13.9-9.51-20.83-2.78-6-4.69-12.74-8.67-17.84-3.84-4.91-6.12-10.13-8.14-15.75-1.12-3.11-2.65-6.08-3.78-9.19-1.69-4.63-3.93-9.22-4.61-14-1.22-8.47-1.34-17.09-2.12-25.63-.56-6.18-3.42-12.19-1.21-18.59a3.84,3.84,0,0,0-.6-2.87c-5.75-8.9-10.81-18.39-17.61-26.42-7-8.26-20.06-7-26.9,1.55a49,49,0,0,0-6.74,11c-3.3,7.56-5.65,15.55-9.07,23.06C437.83,611,431,623.9,425,637.2c-10.1,22.38-20.73,44.58-29.45,67.5-10.1,26.55-27.45,48.56-42.68,71.82-7.64,11.67-15.44,22.92-20.32,36.06-1.17,3.14-14.66,48.55-16.55,51.42-1.12-.31-3.82-56.75-2.85-59.46,2.9-8.07,3.55-73.49,3.4-86.74-.1-8.24.74-16.55-.1-24.7-2.36-22.82-3.79-45.54.36-68.32.51-2.81-.26-5.91-.67-8.84-1.05-7.5-2.58-15-3.27-22.47-1.41-15.51-4.23-30.9-3.06-46.61.59-7.94.26-16,.37-23.93.27-19.85.47-39.7.85-59.55s3.22-39.68,1.6-59.73c-1.52-18.86-1.79-37.86,1.14-56.72a19.66,19.66,0,0,0,0-7c-3.8-17.53-1.54-35.12-.75-52.71.13-2.94-.44-5.91-.35-8.85a136.19,136.19,0,0,1,1.06-16.68c.27-1.7,2.69-3.87,4.52-4.36,4.34-1.16,9.11-1,13.57-1.15q13.92-.55,27.86-.28c14,.26,28.05-1.19,42,2.18,5.2,1.26,11.24.31,16.63-.87s9.07-5.52,8-11.06c-1-5.25,1.18-8.25,4.33-11.3,3.72-3.61,3.5-8.28,1.82-12.1-2.86-6.54-7-12.5-10.45-18.79-5.38-9.79-10.54-19.7-16-29.46s-9.59-20.26-16.65-29.36c-7.48-9.63-13-20.77-19.68-31-6.8-10.45-11.64-22.21-20.94-31A56.85,56.85,0,0,1,341,73.81c-7.21-10.58-14.56-21.1-21.15-32.06C311.9,28.63,300.23,24,285.65,24.38a14.31,14.31,0,0,1-6.33-1.57c-12.06-5.84-18.95-4.26-28.21,5.74-5.61,6.06-11.83,11.58-18,17.08C226.16,51.81,218.58,57.31,212,63.8c-25.2,24.72-52.4,47-80.65,68.13-13.32,9.95-26.1,20.61-39.21,30.84-13.35,10.42-26.92,20.57-40.17,31.11-6,4.76-11.85,10-12.39,18.46a10.44,10.44,0,0,1-5.64,8.8c-7.39,4.31-7.54,11.68-6.51,18.31,1.07,6.87,7.38,10.76,13.79,11.23a59.63,59.63,0,0,0,21.45-2.13c14.38-4.41,28.86-6,43.25-2.25,11.29,3,22.44,1.34,33.47.87,6-.25,10.82.94,15.24,1.91,2.45,9.5,4.69,18.1,6.87,26.72a11.26,11.26,0,0,1,.48,3.93c-.93,8.27-1.67,16.57-3.05,24.76a238.46,238.46,0,0,0-3.45,41.56c.09,16.82-2.19,33.65-3.17,50.49-1.16,19.8-5.34,39.66.78,59.38a10.38,10.38,0,0,1,0,2.95c-.05,15.83-1,31.72.12,47.47,1,14.18,1.12,28.27,1.64,42.46a569,569,0,0,1-1.43,66.58c-.3,3.75-.4,7.53-.35,11.29.17,13.18.8,26.36.64,39.53-.33,26.93-1.07,53.84-1.62,80.76-.08,4,.2,7.95-.07,11.89-.87,12.24-3.74,24.66-2.49,36.65,2,19.34-.44,38.45-.25,57.66.13,12.51-2.28,25-2.87,37.56-.27,5.74-3.42,116.43-3.55,117.42-.83,6.23,6.55,85.12,8.67,98.31.95,5.92,3.43,11.53,8.87,15,8.65,5.54,18.36,7.64,28.42,7.42,14.54-.32,29.06-1.57,43.6-1.91,23.22-.54,99.59-3.65,112.92-21.65,1-1.31,15-41.12,23.86-52.93.35-.46,24.64-43.46,32.89-56.64,6.81-10.9,14.56-21.32,18.63-33.86A70.7,70.7,0,0,1,428.94,945c4.18-6.33,9.89-6,13.07.59,4.6,9.53,8.69,19.33,12.62,29.16,6.4,16,8,33.66,17.42,48.7,3.46,5.52,4.89,12.28,7.41,18.42,2.64,6.45,4.29,13.74,8.45,19,8.3,10.58,9.19,22.42,9,34.82-.1,7.52,4.58,26.31,9.17,32.89,3.33,4.79,7.83,8.75,11.51,13.31,3.29,4.08,7.12,4.61,11.89,3a55.45,55.45,0,0,1,9-2.26c9.22-1.4,18.61-1.88,27.75-3.66,9.58-1.86,18.54-2.65,28.3.59,17.28,5.73,27.33.15,33.62-16.48,4.22-11.17,7.49-22.86,13.07-33.3,10.74-20.09,14.86-42.59,24.51-63,2.95-6.25,5.79-12.54,8.66-18.83,10.31-22.62,20.68-45.2,30.89-67.87,6-13.3,12.16-26.56,17.4-40.16,4.9-12.73,10.36-25,18.2-36.26a20.47,20.47,0,0,0,1.94-4.57c6.42-16.67,12-33.59,22-48.83,12.06-18.41,17.11-40,24.29-60.52,6.12-17.52,11.59-35.36,19.21-52.23a385.48,385.48,0,0,0,17-45.44c2.93-9.51,6.56-18.81,10.18-28.08,4.1-10.49,10.49-20.28,11.34-31.76C847.65,581.14,851.52,571,855.21,560.68ZM814,545.08c-2.82,6.75-1.41,15.15-3.33,22.44-2.33,8.86-6.21,17.3-9.33,26-1.1,3-2.69,6.15-2.77,9.26-.38,15.8-8.06,29.34-13.1,43.67-2.41,6.87-6,13.32-8.88,20-6.32,14.59-13.41,28.94-18.49,44-3.07,9.06-7.68,16.64-12.76,24.47-3.42,5.27-4.13,12.29-6.14,18.5-2.11,6.56-4.07,13.19-6.55,19.61-4.06,10.5-8.47,20.86-12.78,31.27-2.28,5.5-4.45,11.06-7,16.42-7.3,15.2-14.78,30.32-22.22,45.46-1.91,3.87-4.14,7.6-5.89,11.54-4.83,10.87-9.79,21.7-14.16,32.75a456.26,456.26,0,0,1-26,54.75,57,57,0,0,0-4.09,7.91,267.72,267.72,0,0,1-20.37,43.08c-4.91,8.45-6.79,18.67-10,28.12-3.7,11-6.05,22.48-12.92,32.28-2,2.9-2.74,6.75-3.89,10.21-2,5.91-5,10.21-12.18,9.24a2.38,2.38,0,0,0-1,0c-9.76,2.85-16,.48-21.68-9.19-3.74-6.36-11.12-11.12-14.62-18.34-4.19-8.64-7.78-17.58-11.86-26.28-2.5-5.35-5.5-10.46-8.12-15.75a57.2,57.2,0,0,1-1.9-5.58c-3-8-6-16-9-24a63.74,63.74,0,0,1-2.33-6.59c-6.2-24.51-20.71-45.82-27-70.32-1.29-5-3.4-9.89-5.24-14.79-.45-1.2-1-2.7-2-3.29-5.05-3-5.69-8.38-8.05-13a27.74,27.74,0,0,0-10.95-11.16c-23.68-12.68-43.7-3.47-56.23,17.59a16.71,16.71,0,0,0-1.59,5.63c-3.78,21.55-13.76,40.46-24.84,58.95-2.86,4.77-4.34,10.4-7.42,15-7.35,11-31.93,67.9-36.64,73.9-1.24,1.56-12.67,24.9-13.34,26.66-2.32,6.14-32.87,8.9-36,9.34-15.1,2.09-52.47.64-67.65,2.1-8.18.79-11.54-2-13-10.16-1.41-7.76-2.25-15.62-3.47-23.42a13.72,13.72,0,0,0-1.65-4.67c-9.44-16.18-8.41-33.61-6.36-51.21a55.86,55.86,0,0,0,.15-10.74c-2.09-27.42-4.49-54.78.2-82.25,1.47-8.6.73-17.59.95-26.4.22-9.27.12-18.56.6-27.83.92-17.87,2.16-35.73,3.23-53.6a43.61,43.61,0,0,0-.09-5c-1.67-31.14,2.19-62.3.52-93.33-1.5-27.94.29-55.77-.26-83.64-.26-13.29.88-26.61,1.13-39.92.11-5.93-.27-11.88-.66-17.81-1.41-21.18,2-42.37-2.1-63.68-2.84-14.86-3.25-30.49-2.42-45.64.57-10.43-.76-20.34-1.89-30.45a37.7,37.7,0,0,1-.24-7c2-26.85,5-53.67,5.66-80.54.47-18.61,2.35-37,3.93-55.49.68-8-3.34-54.91-14.21-57.54-6.61-1.6-13.78-1.35-20.67-1.17-8.26.21-16.48,1.74-24.72,1.8-15.57.12-31.15-.33-46.72-.74-3-.08-6-1.05-11.06-2C88.19,207,93.86,201,100.1,195.72Q116.78,181.53,134,168c14.9-11.65,30.27-22.68,45-34.49,11.13-8.92,21.64-18.63,32.38-28q19.86-17.4,39.65-34.89c5.72-5.06,11.16-10.45,17-15.35,8-6.71,11.19-5.93,17.4,2.9A38.42,38.42,0,0,0,293.06,66c7.65,6,13.88,12.75,17.92,22,2.56,5.88,7.72,10.78,12.27,15.6a82.57,82.57,0,0,1,18.82,31.93,10.25,10.25,0,0,0,1.25,2.68c6.56,9.55,13.2,19,19.72,28.6a32,32,0,0,1,3.82,6.94c3.71,10.23,7.26,20.53,10.75,30.83,1.8,5.3,3.35,10.67,5.4,17.22-3,.71-6.37,2.15-9.74,2.19-18.25.2-36.5.29-54.74-.15-4.14-.1-8.15-2.85-12.36-3.69a81.11,81.11,0,0,0-16.58-2c-7,.07-11.71,64.5-12.54,77.4-1.77,27.4-3.06,54.78-2.24,82.3.59,19.52-1.12,39.1-1.64,58.65q-.85,31.82-1.4,63.63c-.39,21.89-.82,43.79-.87,65.68,0,19.54.1,39.09.75,58.61.8,24.43,2.37,48.84,3.3,73.26.57,14.95.46,29.92.85,44.88.52,20.2,1.13,40.35-.72,60.6-1.33,14.67-1.72,29.68-.1,44.27,1.12,10.08,2,20.31,3.83,30.34a66.07,66.07,0,0,1-.56,25.68,23.08,23.08,0,0,0,1,11.54c3.1,9.16,6.35,18.05,2.78,27.93-2.19,6.06.09,11.11,5.25,14.8a35.85,35.85,0,0,0,6.74,4.19c17,7.15,22.82,5.4,30.86-11,4.94-10.1,8.53-20.9,12.29-31.54,3.65-10.31,5.72-21.11,11.14-30.88,3.18-5.74,4.83-12.32,7.22-18.5,1-2.48,1.56-5.31,3.18-7.29,12.17-14.88,14.61-33.77,21.2-50.93,5.05-13.16,11.38-25.6,20.4-36.35,7.14-8.52,11.2-18.62,16.46-28.1,7.72-13.88,14.89-28.06,22.26-42.14a18.43,18.43,0,0,0,1.91-4.6c4-18.39,13.9-34.39,20.63-51.67,1.76-4.53,3.92-8.9,6.37-14.42a16.22,16.22,0,0,1,5,13.5c-.64,10.54,3.4,19.44,9,27.78,9,13.34,15.66,27.85,18.17,43.54,2.29,14.24,7.16,28.29,5.48,43.08-.1.92.45,1.91.62,2.88,1.8,10.1,3.73,20.19,5.31,30.32,1.12,7.13.61,14.73,2.86,21.43,4.46,13.24,2.54,27,5.12,40.37,1.12,5.83,1.29,11.84,2,17.75,1.89,15.06,3.85,30.12,5.76,45.18a7.27,7.27,0,0,1,0,3c-4,12.07.48,23.72,1.92,35.46,1.18,9.64,11.06,18.11,20.54,20.1,7.85,1.64,15.51,2.91,23.59,2,9-1,15.36-4.74,17.69-13.41a94.71,94.71,0,0,0,2.79-20.63,47.53,47.53,0,0,1,6.9-23.58c7.78-12.69,17-24.63,20.32-39.65a8,8,0,0,1,1.76-3.56c8.15-9,9-20.08,10.06-31.42.55-6.19,2.69-12.31,4.69-18.26,2.64-7.82,5.45-15.34,6.36-23.84S648,789.52,652,782c5.54-10.46,7.43-21.93,11.17-32.86,4.48-13.09,8.09-26.48,12.22-39.7,7.3-23.42,15.13-46.67,20.15-70.76,4.8-23,10.17-46,15.08-69,1.58-7.41,2.68-14.94,3.72-22.44,2-14.5,5.2-28.58,11.79-41.82,2-4.11,4.7-6.14,8.53-4.16,13.68,7.08,28.44,4.66,42.55,4.14A138.33,138.33,0,0,1,820.35,510C815.07,521.48,818.8,533.62,814,545.08Z" transform="translate(-19.93 -12.42)" style="stroke:#fff;stroke-miterlimit:10;stroke-width:14px"/><path d="M1922.33,1104.33c-7.65-6.4-8.36-14.78-8.88-24.08-1-17.18-2.92-34.35-5.36-51.4-2.58-18-5.66-35.94-11-53.6-5-16.25-16.1-23.25-30.18-28.41a24.72,24.72,0,0,0-6.72-1.81c-2.47-.17-5.35-.25-7.45.83-16.74,8.55-33,17.6-52.58,19.2-5.63.46-11.85.91-17.39,2.53-14.31,4.19-28.8,6.84-43.64,6.76a133.16,133.16,0,0,1-25.6-2.47c-10.3-2.09-20.41-5.25-30.45-8.44-7.84-2.49-16.26-4.5-22.94-8.94-8.95-6-16.95-13.6-24.52-21.34-9.67-9.91-20.13-19.28-25.91-32.46-3.84-8.78-8.37-17.25-12.68-25.81-1.48-2.95-2.71-6.27-4.93-8.57-7.24-7.5-9.69-16.58-9.18-26.51.5-9.49,1.79-18.92,2.59-28.39.27-3.24.15-6.52.17-9.78,0-1.94-.53-4,0-5.81,3.19-11.1,6.62-22.14,10-33.19.48-1.59,1.37-3.13,1.51-4.74,1.66-18.79,11.93-34.1,20.8-49.79,5.3-9.37,12.58-17.66,19.24-26.23,3.84-4.94,8.42-9.29,12.29-14.21a103,103,0,0,1,23.74-22.46c13-8.73,26.33-16.63,42-19.35,8.34-1.45,17-1.33,25.23-3.13,11.31-2.47,21.66.9,32.25,3.44,3.87.93,7.77,1.8,11.58,2.92,4.66,1.37,9.32,2.82,13.86,4.54,6.16,2.32,12,6,18.36,7.15,7.72,1.44,15.79,1.1,23.72,1.2,8.76.12,15-4.44,17.92-12.69,2.8-7.81,5.75-15.58,8.3-23.48,6.23-19.29,12.87-38.38,24.78-55.1,3.32-4.66,3.78-9.23,2-15-3.14-10.09-10.55-18.08-12.83-28.68-.68-3.11-6-5.84-9.77-7.56-14.41-6.62-12.56-5.75-42.72-20.95s-39.17-15.58-59.46-17.12-26.45-2.36-39.69-3.38c-46.35-7.71-92.74,7.35-94.61,7.74-6.78,1.44-39.44,14.6-43.18,16.51-6.45,3.28-30.66,20.29-36.46,25.14s-11.69,9.86-16.54,15.64c-4.61,5.49-7.44,12.46-11.94,18.06a177.13,177.13,0,0,0-15.63,23.3c-2.76,4.81-6.79,9-8.94,14-4.65,10.83-23.45,56.35-25,65.16-.85,4.86-12.91,31.23-14.65,40.37-1.18,6.19-7.91,30.86-8.45,37.4-.61,7.48,1,15.22-.24,22.55-1.48,9-4.37,17.94-7.55,26.57-3.27,8.86-5.74,8.71-13.77,3.17-9.72-6.71-20.4-10.59-32.59-6.82a17,17,0,0,1-7.8.53c-25.86-4.76-51.54-2.86-77.35.92-23.68,3.47-47.47,5.39-71.44,1.38-6.2-1-12.88.88-16.63,6.76a106.14,106.14,0,0,0-9,17.7c-1.92,4.84-2,9.68-.35,15.35,3.51,12.26,8,24.55,5.25,38-1.88,9.38-2.35,19.1-2.65,28.7a28.65,28.65,0,0,1-4.87,15.75c-4.67,7.08-5.43,14.73-4.21,23.64,1.51,11.09,5.35,17.8,16.79,19.09a4.44,4.44,0,0,1,1.75.95c8.77,6.11,17.41,4.19,26.18-.16,4.75-2.36,9.55-5.16,14.65-6.16,16.24-3.2,32.67-5.45,49-8.46,11.09-2.05,22.1-4.61,33.08-7.23a25.57,25.57,0,0,1,18.28,1.81c10.67,5.22,23.26,8.61,33.85,4.53,10.21-3.94,18.88-12.46,29.68-16.49,5.72-10.33,13-21.07,4.93-35.19-6.06-10.65-4.66-22.1-.88-35.11,6.25,5.69,6.61,11.89,7.32,17.53.94,7.54.53,15.25,1,22.86.68,10.38,6.83,20.22,3,31.08-.26.75.69,1.85.81,2.83,1.11,9.14,2.68,18.27,3.08,27.45.43,10.08,1.26,19.67,6.85,28.62a39.09,39.09,0,0,1,5.56,15.84,49.8,49.8,0,0,0,7,20.37c2.28,3.86,4.26,8.45,4.57,12.84,1.19,17.37,23,53.65,24.31,57.36,2.8,8.07,9.31,12.8,14.48,18.7,2.78,3.18,58.6,42.63,64.76,45,3.7,1.42,7.31,3.11,11.09,4.3,8.86,2.77,17.84,5.18,26.7,8,12,3.8,23.9,8.25,36.07,11.57,9,2.44,73,13.26,74.31,13.29,7,.11,14.05-.57,20.88.43,15.74,2.29,49.67-.58,51-.73,3.62-.43,7.3-.53,10.89-1.17,15-2.7,30.65-.22,45.19-6.12,5.16-2.1,10.4-4,15.47-6.34,13.55-6.11,27.14-12.15,40.48-18.68,3.71-1.82,8.31-4.7,9.52-8.13,2.24-6.42,2.5-13.58,3.1-20.47A7.27,7.27,0,0,0,1922.33,1104.33Zm-525.8-259.59c-1.12,6.5-1.49,11.87-3,16.87-2.54,8.27-7.86,12.65-16,11.27-23.43-3.94-45.2,4.59-67.68,7.74-14.78,2.07-29.51,4.48-44.3,6.4-6.55.85-10.72-3.59-10.13-10.18.93-10.55,1.47-21.18,3.22-31.6,1.46-8.71,4.16-17.25,6.91-25.67.7-2.15,3.4-4.46,5.65-5.16,11.93-3.72,23.92-6.63,36.69-7,14.2-.4,28.43-2.4,42.45-4.8,12.42-2.12,24.41-.31,36.46,1.65,6.25,1,10.12,6.19,10.2,13C1397,826.81,1396.67,836.4,1396.53,844.74Zm465.26,261.69c-10.14,6.16-21.82,7.18-32.73,10.72-.93.3-2.08,0-3,.37-13.31,5.85-27.82,5-41.58,7.77-17,3.45-33.72,2.51-50.51,1.19-12.18-1-24.18-4-36.32-5.61a390.17,390.17,0,0,1-70.84-16.33c-16.32-5.4-32.74-11.41-47.74-19.65-16.5-9.06-31.5-21.12-40.69-38.24-3.82-7.13-5.47-15.43-7.94-23.25-.69-2.18-27.55-73-29.86-82.12s-2.38-19-3.44-28.6c-.4-3.64-.6-7.32-1.28-10.9-2.92-15.29-5.18-30.54-4.6-46.28.42-11.46-1.77-23-1.81-34.49-.06-16.08,1-32.06,5.2-47.8,4.62-17.51,10.84-34.65,12.44-52.92.51-5.84,9.9-50.11,16.55-64.1,2.65-5.58,3.83-11.86,6.37-17.5,5.3-11.74,11.15-23.23,16.6-34.91,4.58-9.84,8.9-19.81,13.37-29.71a11.83,11.83,0,0,1,2-3.36c9.17-9.6,18.78-18.81,27.52-28.78,7.21-8.24,16.35-12.36,25.87-17.13,9.77-4.88,30.61-12.42,30.78-12.66,15.07-7.29,16.42-6.87,25.45-8,11.15-1.4,22.19-3.74,33.35-5.1,34.72-4.24,68.75,0,102.26,9.2,8.7,2.38,16.72,6.35,23.39,12.8a88.83,88.83,0,0,0,10.88,8.7c6.08,4.25,8.21,9.1,5.67,16.08-4.21,11.55-8.81,23-13.33,34.39-2.78,7-5.73,14-8.88,21.68-3.19-1-5.69-1.65-8.07-2.6-8.94-3.59-17.79-7.4-26.79-10.86a52.86,52.86,0,0,0-10.61-2.74c-13.68-2.21-27.37-4.51-41.12-6.19-5.46-.66-50.78.49-92.26,28.58-4.83,4-29.49,24.69-36.72,31.46-11.8,11.06-20.15,24.56-30,36.93-4.13,5.19-18,27.25-20,34.17-1.61,5.64-5.26,10.68-7.69,16.12a42.31,42.31,0,0,0-2.92,9.46c-.78,4.16-12.7,45-9.59,61,2.12,11,1.31,22.44,2.22,33.65a121.69,121.69,0,0,0,3,20.44c3.16,12.18,6.66,24.31,10.88,36.15,2.73,7.68,6.66,15,10.65,22.13s9,13.89,13.18,21a77.76,77.76,0,0,0,11.73,15.8c3.79,3.79,6,9.28,8.49,14.22,4.44,8.77,12.65,13.73,20.24,18.63,11.33,7.3,22.71,14.7,35.82,19.19,7.66,2.63,38.75,15.69,41.2,16.4,17,4.88,34.33,5.56,51.83,4.72,1.65-.08,59.37-4.15,66.27-7.26,2.63-1.18,5.61-2.37,8.38-2.27,10.38.37,20-2.83,29.9-5.15,2.19-.51,4.39-1,7.93-1.81,1.09,4.92,2.53,9.26,3,13.69,1.79,18.83,3.24,37.69,4.92,56.54a77.35,77.35,0,0,0,1.81,11.83C1873.15,1095,1870.33,1101.25,1861.79,1106.43Z" transform="translate(-19.93 -12.42)" style="stroke:#fff;stroke-miterlimit:10;stroke-width:14px"/><path d="M2450.62,1093c-1.29-15.43-.57-31.19-3.51-46.26-3.07-15.77-3.15-31.64-5.19-47.39-.75-5.87-1.72-12.13-.46-17.73,1.92-8.57-.76-16.43-1.62-24.54a10.31,10.31,0,0,0-4.07-6.62c-6.28-4.17-12.27-9.34-20.45-9.41-11-.1-22-.69-32.86,0-7.21.47-14,2-21.57.46-7.24-1.5-15.13-.08-22.71.43-14.22,1-28.4,2.46-42.63,3.22-16.49.88-33,.91-49.53,1.86-11.56.66-23.06,2.49-34.62,3.37-12.79,1-52.48,2.07-59.62-.14-6.76-2.1-15.86-11.18-16.36-18.19-.58-8.19-.45-16.42-.88-24.63-.19-3.57-1.18-7.1-1.52-10.68-.65-6.88-1.09-13.77-1.62-20.65-.18-2.27-.16-4.58-.56-6.81-3.44-19.24-7.06-38.44-10.33-57.71-.54-3.18.49-6.6.6-9.91.33-10.77,1.57-21.64.61-32.3-1.41-15.51-4-30.88-3-46.54.68-11.18,1-22.38,1.42-33.57.05-1.3-.51-2.6-.63-3.92-1.13-12.53-2.39-25.06-3.26-37.61-.57-8.18,0-16.47-.95-24.59-1.52-12.76-6.19-24.85-7.14-37.91-1.15-15.81-4.75-31.44-7.12-47.17-1-6.87-1.42-13.83-2.47-20.69-1.21-8,3.2-27.5,2.61-29.11-3.16-8.66,1.19-36.23-44-31.62-5.47,2-11.37,2.72-17.07,4-10.33,2.39-20.82,4.25-30.94,7.32-19.27,5.83-39,8-58.95,9.08-10.32.55-15.18,8.06-10,16.65,2.51,4.16,2.58,7.06-.34,10.7s-3,7.55-1.38,12.16c3.18,9,6.43,18.17,8,27.54,3,17.67,5.13,35.5,7.29,53.31q4.8,39.5,9.1,79.05c1.64,15.09,3.26,30.21,4.14,45.35,1.5,25.56,2.41,51.16,3.55,76.74.34,7.61.84,15.22.92,22.83.19,17.27-.09,34.54.3,51.8.54,24.23,5.83,48.11,5.52,72.45-.27,21.26.54,42.53.19,63.78-.3,18.51-2.66,37-1.93,55.47.4,10-1.48,19.69-.66,29.55a26.89,26.89,0,0,1-1.08,8.84c-1,3.65-2.49,7.16-3.77,10.73-1.47,14.36,5.64,24.75,14.28,34.07,4.54,4.9,11.22,8,18,6.86,12.47-2.08,24.92-2.53,37.53-2.91,11.52-.34,23-3.17,34.45-5.17,19.62-3.42,39.2-7.06,58.79-10.6,14.37-2.6,28.74-5.15,43.1-7.79,5.88-1.08,11.84-2,17.59-3.58,20.31-5.74,41.28-6.8,62.09-8.45,27-2.15,54.32-.83,81.23-5.23a24.1,24.1,0,0,1,6.94-.15c14.42,2,28.77,4.81,43.25,5.85,11.26.82,21.11,4.91,31.18,9.06a91.57,91.57,0,0,0,15.07,5.1c3.4.75,7.51.93,10.63-.32,5.86-2.36,11.13-15.82,9.66-22.34C2452.72,1103.26,2451.06,1098.15,2450.62,1093Zm-50.86-35c-17,10.43-36,7-54.19,8.71-17.15,1.64-34.39-1-51.68,1.61-15,2.24-30.44,2.46-45.7,3-23.25.83-46,5-68.65,9.71-18.19,3.79-36.53,6.86-54.79,10.34-13.72,2.61-27.38,5.53-41.12,8-15,2.7-30.08,5.29-45.19,7.46-8.76,1.26-13.56-4.1-12.9-12.93.77-10.24,1.75-20.52,1.61-30.77-.07-5.8-2-11.62-3.42-17.37-5.29-21.78-3.48-44-3.82-66-.13-9-.32-17.92-.44-26.88-.09-6.62-.11-13.23-.15-19.85a38.92,38.92,0,0,0,0-5c-2.32-16.73-5.58-33.38-6.85-50.18s-.29-33.71-.79-50.56c-.46-15.89-1.46-31.77-2.4-47.65-1.39-23.55-3.46-47.07-4.2-70.64-.43-13.31-1.26-26.34-4.42-39.34-1.6-6.61-.65-13.81-1.33-20.69-1.48-15-3.1-30.07-5-45.05-.63-4.9-2.68-9.6-3.57-14.49-2.64-14.3-5.5-28.58-7.32-43-1.18-9.37-.77-18.94-1-28.41-.06-3.67,1.4-6.55,5.35-7.37,17.16-3.58,34.31-7.24,51.51-10.62a16.2,16.2,0,0,1,19.28,14c2.69,20.73,4.77,41.53,7.37,62.26.94,7.49,2.78,14.87,4,22.33.87,5.5,1.39,11.06,2,16.6a49.76,49.76,0,0,0,.52,5.89c5.13,21.59,4.44,43.38,3.5,65.35-.66,15.38,1.3,30.86,1.41,46.31.12,17.84,4.45,95.29,6.29,112.33,1.19,11.11,1.45,22.31,2.14,33.47a14.33,14.33,0,0,0,.45,4c4.48,11.87,2.18,24.21,2.49,36.35.06,2.24-.09,5.28-1.46,6.62-5.21,5.15-3.92,10.73-2.4,16.69,1,3.85,2,7.9,1.81,11.8-.59,11.84,6.84,20,14.68,25.74,11.58,8.39,24.25,16.52,39.94,15.53,1.65-.1,3.31,0,5,.05,16.46,1.49,32.66,5,49.5,2.46,16.22-2.45,32.75-3.17,49.18-3.92,13.74-.62,27.55.11,41.31-.34,6.08-.2,12.11-1.86,18.18-2.79a101,101,0,0,1,10.78-1.44c13.53-.65,27.06-1.45,40.59-1.53,11.58-.06,23.19.47,34.74,1.37,5.5.42,10.18,6.41,10.77,12.85,1.41,15.52,2.45,31.08,3.85,46.6C2405.61,1053.24,2403.76,1055.47,2399.76,1057.93Z" transform="translate(-19.93 -12.42)" style="stroke:#fff;stroke-miterlimit:10;stroke-width:14px"/><path d="M1211.4,615.1c-.75-10.22-2.77-20.4-2.73-30.59s-.05-19.86-7-28.14a4.53,4.53,0,0,1-1.16-2.72c.45-11.36-5.56-20.08-11.5-28.89-4.08-6-7.18-12.85-11.88-18.32-12.34-14.33-26.27-27-42.86-36.4a16.23,16.23,0,0,0-3.61-1.62c-13.07-3.59-26.15-7.16-39.25-10.62a17.15,17.15,0,0,0-5-.17c-8.58.39-17.21,1.68-25.72,1.06-13.09-1-26-5.05-39.31-2.8-1.21.2-2.62-.42-3.87-.86-6.8-2.41-13.63-2.39-20.64-.87a37.56,37.56,0,0,1-9.88.66c-9.84-.49-19.38-1.24-29.26,2.11-12.72,4.31-26.18,6.46-39.22,9.91-2.35.62-40.59,10.49-20.83,76.15,1.14,1.68,1,4.54.77,6.77-.6,5.27-1.87,10.47-2.43,15.75-1.42,13.45-4.25,26.77-3.46,40.45a231.32,231.32,0,0,1-.11,23.7c-.43,9.26-1.4,18.51-2,27.76-1.5,21.15-2.12,42.41-4.66,63.43-2.66,22.06-2.11,44.48-7.86,66.21a213.36,213.36,0,0,0-5.07,27.3c-1.45,11.16-2,22.43-3.24,33.62-.5,4.59-2.16,9.06-2.55,13.65-2.2,25.73-3.75,51.52-6.43,77.2-1.07,10.27-2.25,20.37-1.37,30.7.3,3.58-.51,7.29-1,10.91-2.52,17.37-6.11,34.66-7.48,52.12-2.14,27.11-1.82,54.42-6.61,81.32-1.09,6.07.68,11.3,4.27,15.89,6.44,8.23,13.32,15.64,25.14,15.93,4.12.1,8.15,2.72,12.26,4,2.82.91,5.7,2.12,8.59,2.25,10.91.5,21.84.86,32.76.83,16.6,0,33.2-.36,49.79-.81a17.75,17.75,0,0,0,8.39-2.23c13.92-8.45,15.59-12.85,11.64-28.79-.48-1.94-1.47-3.8-1.65-5.74-.72-7.81-2-15.7-1.56-23.46.44-7.11,3.34-14,.23-21.28-1-2.24-.7-5.36-.07-7.84,1.9-7.43,3.53-14.52,1.28-22.43-1.36-4.8-.58-10.45.22-15.57,3.18-20.29,6.51-40.58,10.24-60.78a178,178,0,0,0,1.82-47.7,68.52,68.52,0,0,1,1.32-19.39,286.23,286.23,0,0,0,3.94-30.49c.87-10.81,1-21.69,1.39-32.54.2-4.82,2.58-8.09,7-10,3.35-1.44,6.53-3.31,10-4.5,6.24-2.16,12.59-4,18.93-5.86a57.66,57.66,0,0,1,8.51-1.86c21.75-2.86,41.57-9.78,58.43-24.66,8.08-7.13,17.79-12.4,26.69-18.62,7.26-5.08,16.25-9,21.16-15.82,6.4-8.89,14.37-17.27,17-28.82,1.43-6.35,4.35-12.45,10.11-16.73,1.85-1.37,2.5-4.43,3.5-6.81.85-2,1.37-4.18,2.12-6.24,1-2.62,2.18-5.16,2.94-7.83s.41-5.5,1.56-7.77c5.16-10.14,4.79-21.2,5.58-32,.51-6.85-.57-13.7,2.66-20.38C1211.78,622.79,1211.66,618.67,1211.4,615.1Zm-44.59,7.15c-2.11,14.06-6,27.76-10.63,41.24a17.72,17.72,0,0,0-1.13,4.81c-.84,19.9-9,36.32-23.56,49.69-7.57,6.92-14.94,14.07-22.75,20.71a46.09,46.09,0,0,1-12.5,7.9c-9.07,3.58-17.07,9.26-26.85,11.69-8.39,2.09-16.46,6.49-23.88,11.12-8,5-15.57,7.07-25.15,6-16.14-1.75-15.13,3.35-30.36,9.22-6.73,2.59-10.81,27.18-10,29.12,6.27,15-9.43,51-9.6,58.21-.13,5.29-.48,10.58-.75,15.87-.17,3.32.34,6.91-.73,9.92-4.46,12.53-1.69,25.74-4,38.43-.23,1.28-1.32,36.11-4.57,52.09-4.21,20.74-6.74,41.82-10,62.76-.16,1-1.62,24.5-3.89,35.1-1.44,6.76-1.95,13.75-3.77,20.39-2,7.16-4.95,8.87-12.49,8.65-12.23-.36-24.45-.85-37.65-1.31-.12-5.62-.62-10.52-.25-15.36.83-11,2.55-21.85,3.05-32.8.46-10.18-.21-20.41-.36-30.61-.1-6.18-.59-12.39-.17-18.54.76-11.26,2.17-22.48,3.09-33.73.45-5.53.28-11.1.58-16.65.87-16.16,1.62-32.34,2.82-48.48,1.23-16.5,3-33,4.4-49.45,1.57-18.49,5.33-36.52,9.15-54.69,3.47-16.52,9.34-33.3,5.54-50.83a5.89,5.89,0,0,1,.07-3c4.24-12.67,0-25.7,1.73-38.48,1.34-10.17,3-20.31,4-30.51,1.52-14.75,2.46-29.55,4-44.29,1.38-13.39,3.56-26.7,4.73-40.11,1.29-14.7,4.38-29.55,1.69-44.18a85,85,0,0,1-.1-29.38c.88-5.55-7.15-30.83,14.07-33.58,4.79-1.22,9.62-2.59,14.51-3,12.23-1,24.5-1.7,36.76-2.26a133.91,133.91,0,0,1,15.9.29c19.45,1.45,38.9,2.84,58.3,4.77,6.16.61,12.28,2.5,18.22,4.42,10.61,3.42,21.11,7.18,31.54,11.09,2,.75,3.54,2.81,5.18,4.39,1.43,1.38,2.48,3.85,4.09,4.25,13.57,3.35,31.74,45,30.4,56.72C1165.11,582.91,1168.45,611.4,1166.81,622.25Z" transform="translate(-19.93 -12.42)" style="stroke:#fff;stroke-miterlimit:10;stroke-width:14px"/><path d="M2703.34,1083.16a31.15,31.15,0,0,1-5.41-13.62c-1.95-18-1.53-36.21-5-54.09a10.94,10.94,0,0,1,.26-3c1.14-11.49,1.82-22.9-5.38-33.07-.73-1-.84-2.5-1.13-3.79-2.5-11.29-2.56-23.19-8.37-33.68a4.62,4.62,0,0,1-.31-2c-.72-13.24-1.18-26.5-2.19-39.71-1.23-16,1.39-32.33-3-48.18a24,24,0,0,1-.31-5c-.54-9.56-.83-19.14-1.68-28.66-1-11.2-2.53-22.34-3.73-33.52q-2.13-19.89-4.07-39.81-2.33-23.6-4.52-47.2a52.54,52.54,0,0,1-.45-7.91c.58-10.38-1.56-20.4-4.22-30.26-2.19-8.13-3.63-16.2-2.66-24.61a18.17,18.17,0,0,0,.16-4.82c-2.8-16.85-5.61-33.71-8.57-50.54-1.37-7.78-2.85-15.55-4.7-23.23-1.71-7.09-4.92-13.92-5.77-21.07-1.28-10.74-4-34.25-4.4-35.13-6.78-15.13-6.05-31.5-7.33-47.43-1.23-15.27-8.45-26.9-22.94-30.74-8-2.11-16.49-4.87-24.42,2.18-3.78,3.36-9.16,5.41-14.16,6.81-9.23,2.58-18.63,5.05-28.12,6.11-21.76,2.44-43.57,5-65.52.88-4-.74-8.58.57-12.6,1.85-4.38,1.4-9.65,9-8.57,12.26,3.41,10.35,5.91,21.43,11.57,30.46a69.16,69.16,0,0,1,8.43,18.63c7.43,27.14,11.93,54.9,16.78,82.59,3.9,22.23,8,44.42,11.68,66.69,3,18.3,5.47,36.7,8.11,55.07.18,1.28-.26,2.65-.26,4,0,18.2-.19,36.4,0,54.6q.33,43.26,1,86.53c.14,7.92.93,15.84,1.59,23.75.69,8.24,1.62,16.45,2.35,24.69.8,8.91,1.88,17.81,2.15,26.74.54,17.85.18,35.73,1.05,53.55.54,11.12-1.45,22.46,2.49,33.38.62,1.72-.28,3.94-.16,5.92.15,2.62.68,5.22.92,7.84.6,6.54,1.31,13.08,1.65,19.64.44,8.57.34,17.16.91,25.72.54,8.22,1.67,16.39,2.42,24.6a14.41,14.41,0,0,1-.69,3.87,17.31,17.31,0,0,0,5.79,16.87c4.64,4.11,10.29,7.37,14.79,11.22,9.19,7.88,19.64,7.72,29,5.56,20.07-4.65,40.31-8.06,60.5-12,14.91-2.87,28.78-2.45,42.89,3.18a30.51,30.51,0,0,0,16.45,1.86c6.33-1.29,12.22-5,18.13-8,1.6-.82,3.47-2.76,3.68-4.38C2708.87,1104,2710.19,1093.19,2703.34,1083.16Zm-65.93,1.25q-35.49,5.08-71,10c-.59.08-1.24-.34-3.18-.92.39-8.82,1.2-17.27,1-25.69-.16-5.86-1.72-11.69-2.7-17.53a50.14,50.14,0,0,1-1.14-5.84c-.31-6.88-.81-13.79-.54-20.67.33-8.41-.21-16.45-3.25-24.5-1.44-3.79-.15-8.53-.57-12.8-.93-9.57-2.31-19.1-3.23-28.67-.88-9.22-1.46-18.47-2.07-27.72q-1.62-24.81-3.11-49.65c-1.23-20.81-3.56-41.64-3.12-62.41.25-12-3.37-23.33-2.25-35.25a241.69,241.69,0,0,0,1.07-34.76c-.9-17.83-3-35.61-4.55-53.41-.11-1.33-.22-2.65-.36-4-1.53-13.8-2.74-27.65-4.71-41.4-1.27-8.78-3.8-17.37-5.53-26.1-4.08-20.45-8-40.93-12-61.39-2.7-13.58-6.27-27-8.14-40.73-1.71-12.47-8-24-7-36.93.1-1.29.46-2.56.92-5.06l72-8.81c5.41,4.5,7.43,9.82,8.6,15.9,3.6,18.57,7.89,37,11.37,55.61,4.88,26,9.4,52.16,13.77,78.3.75,4.45-.26,9.16,0,13.73.19,3.22,1.37,6.37,1.76,9.59,2.9,23.6,6.94,47.14,8.23,70.84,1.57,28.82,5.29,57.32,8.77,85.91,1.24,10.18,1.14,20.52,1.75,30.78.32,5.3.86,10.59,1.29,15.89.74,9.22,1.7,18.44,2.15,27.68s.46,18.59.53,27.88c0,4.32-.25,8.63-.34,13a61.88,61.88,0,0,0,0,8.93c1.21,9.53,2.75,19,4,28.53.92,6.89.18,13.67-.36,20.6-.71,8.88,1.56,18.15,3.51,27.05,4.09,18.69,8.8,37.2,7.47,56.65-.34,4.84,1.67,9.8,1.87,14.73C2648.58,1078.56,2644.2,1083.44,2637.41,1084.41Z" transform="translate(-19.93 -12.42)" style="stroke:#fff;stroke-miterlimit:10;stroke-width:14px"/><path d="M1959,375.27c11.57-.83,23.21-2.31,34.74-1.84,18.64.76,35.73-3.55,51.24-13.41,7.22-4.59,12.83-11.27,14.74-20.22,3.48-16.38-1.77-31.64-7.67-46.16-5.33-13.11-13.42-25.1-20.5-37.47a45.43,45.43,0,0,0-7.13-9.53c-4-4-4.93-8.1-3.54-13.58.84-3.3.29-7.16-.43-10.6-3.23-15.35-14.1-24.68-27.05-31.41a22.31,22.31,0,0,0-22.88.89c-10.09,6.21-18.94,13.46-25,23.85-1.45,2.5-3.36,4.73-5.35,7.48-6-4.32-11.65-8.26-17.18-12.35-13.16-9.73-28.32-14.58-44.15-16.91s-28.49,5-39,16.05c-3.55,3.74-6.52,4.21-11.34,2.36-13.36-5.13-21.19.24-21.84,14.71-.14,3.1,1.27,6.28,2,9.41,2.34,9.39,7.22,17.82,5.5,28.61-1.26,7.94.92,16.8,8.94,22.82,14.91,11.18,34.12,7.17,40.17-10.21,3.4-9.77,4.61-20.72-.88-31,2.23-2.93,4.31-5.95,6.67-8.72,6.26-7.36,14.12-9,23.2-5.05,3.65,1.6,7.34,3.15,10.81,5.09,7.91,4.41,9.07,7.69,7.08,16.34a92.49,92.49,0,0,0-2.69,16.53,33.43,33.43,0,0,0,5,19.91c4.28,6.69,10.74,7.64,17.45,7,6.3-.59,10.73-3.76,12.57-10.81,1.73-6.65,4.89-12.74,3.61-20.08-.55-3.17,1.06-6.72,1.81-10.74,13.62,8.53,27.43,12.45,41.43,15.13,6.84,1.31,11.18,4.54,15.56,9.43,9.16,10.22,11.65,23.62,17.62,35.33,3.19,6.24,1.54,8.86-4.79,12a51.82,51.82,0,0,1-14.07,4.8c-10.14,1.69-20.44,2.42-30.62,3.9-14.7,2.12-30,1.69-44.57,10.12.81,5.31-2.17,10.81,2.57,15.28C1938.92,369.62,1947.15,376.11,1959,375.27Z" transform="translate(-19.93 -12.42)" style="stroke:#fff;stroke-miterlimit:10;stroke-width:14px"/><path d="M1486.69,302.06c15,3,38.4-11.59,30.18-29.81a96.25,96.25,0,0,1-3.45-10.33c-.49-1.56-1.36-3.22-1.18-4.72,1.23-9.94,17.08-19.84,26.78-16.89,12.86,3.92,22.84,19,20.9,32-.48,3.27-1.75,6.42-2.54,9.66-2.89,11.91,4.62,22.59,18.11,25.82,9.29,2.21,18.24-4.52,21.18-15.58.5-1.9,2.34-3.45,4.16-6,3,4.61,4.81,8.54,7.6,11.61,6.09,6.69,14.54,6,22.43,5.54,12.28-.67,16.78-6.26,16.6-18.79-.09-6.32-2.31-12.16-3.39-18.17A64.32,64.32,0,0,1,1647,233c2-5.48,6.57-8.45,12.34-7.64,15,2.09,26.3,8.83,30.76,24.34.81,2.84,2.58,5.39,3.48,8.22,2.8,8.84,6.41,17.67-.59,26.47-1.12,1.41-1.26,4.54-.51,6.3,1.77,4.18,3.69,8.62,6.73,11.85,7.33,7.78,25.55,7.94,30.67-.25,5.81-9.31,9.84-19.62,5.64-31.22-4.63-12.75-8.47-25.82-13.51-38.4A54.9,54.9,0,0,0,1711.56,216c-12.23-13.16-27.58-21.64-44.66-27-12.25-3.81-24.93-6.23-36.9-.33-5.68,2.8-11,4.17-17,3.64-7-.62-11.09,2.83-14.36,8.4-5.21,8.87-3.49,18.28-.33,26.65a50.46,50.46,0,0,1,2,31.12c-9.41-12.56-17.34-24.93-27.11-35.62-7.5-8.21-14.13-17.34-25.87-21.85-14.17-5.44-26.1-2.37-37.53,4.71-12.67,7.84-24.54,17-36.59,25.8a38.65,38.65,0,0,0-8.43,8.41,15.93,15.93,0,0,0-2.83,8.17c-.54,10.54-.63,21.1-.8,31.65,0,1.28.08,3,.86,3.78C1469.33,290.87,1474.67,299.64,1486.69,302.06Z" transform="translate(-19.93 -12.42)" style="stroke:#fff;stroke-miterlimit:10;stroke-width:14px"/><path d="M1168.48,254.14c.69,5.85,2,13.2-.65,17.52-5,8-2.87,15.22-1.85,23,1.5,11.43,10.23,15.65,19.45,18.91,9,3.19,17,.27,23.75-6,1.87-1.72,4.12-3.85,4.57-6.11,1.12-5.55,1.29-11.28,1.93-18,1.06.2,2.68,0,3.55.74,4.34,3.57,9,3.52,14.11,2.18a34.79,34.79,0,0,1,6.92-.9c6.63-.36,13.41-1.59,19.87-.65,14.22,2.07,24.42,11.16,32.63,22.25,3.45,4.66,7.24,10.51,7.29,15.85.06,6.16,2,10.4,5.23,14.95,5,7.07,15.09,10.92,22.62,8.26,9.15-3.25,14.22-11.23,12.35-21.24-1.15-6.13-4-11.93-5.77-18-4.59-15.65-15.13-27.37-26.58-37.91-8.42-7.76-17.89-14.85-29.84-17.27-3.31-.66-6.35-2.69-10.65-4.6,2.43-2.14,3.58-3.21,4.78-4.21,7.16-5.88,14.77-11.31,21.38-17.75,7.5-7.29,10.15-23.71,4.47-32.13-7.12-10.56-13.37-21.7-25.09-29-17.34-10.84-34.93-20.15-55.11-24.53-23.24-5-50.31,7.32-54.92,37a153.36,153.36,0,0,0,.92,53.29C1165.41,237.91,1167.5,246,1168.48,254.14Zm26.07-63.62c2-11.15,14.12-19.16,25.17-16.69,14.93,3.34,29.08,9,40.54,19.78,5.76,5.42,6.26,9.31-.29,13.76a186.47,186.47,0,0,1-30.19,17c-9.9,4.3-20.42,7.11-29,15.2C1192.57,223.44,1191.53,207.07,1194.55,190.52Z" transform="translate(-19.93 -12.42)" style="stroke:#fff;stroke-miterlimit:10;stroke-width:14px"/><path d="M2444.66,231c2.81,1.38,5.08,3,4.75,6.75-.67,7.51-1,15-1.62,22.56-.68,8.91,6.22,21.26,13.73,24.52,4.23,1.83,8.43,3.71,12.72,5.6,9.31-5.63,13.68-16.55,11.43-28a64.37,64.37,0,0,1-1.58-13.78c.53-18.75,7.38-26.1,25.9-28.14,2.4-.26,4.89.41,7.48.66-.22,2.22-.36,3.19-.4,4.17q-.8,22.77-1.53,45.54a4.86,4.86,0,0,0,.87,2.8c4.08,5.58,7.53,11.89,12.57,16.44,7.86,7.13,16.94,6.45,24.91-.25,2.54-2.14,5.22-4.11,8.46-6.66-1.07-9.74,1.74-17.46,9.33-23.13,5.82-4.34,9.27-3.87,12.86,2.6a54.62,54.62,0,0,1,5.09,12.94c2.84,11.26,8.62,19,20.81,21.39,6.93,1.34,11.29.47,13-6.16a56.08,56.08,0,0,0,1.72-18.6c-1.42-17.4-13-29.34-23.72-41.66A7,7,0,0,0,2599,229c-13.65-5.61-26.91-13.79-42.59-6.74-.41.18-1.16-.43-2.43-.94-.19-2.22-.61-4.79-.59-7.36,0-6.55.44-13.11.43-19.67,0-14.26.22-28.54-.39-42.78-.58-13.72-3.72-26-18.72-32-8.44-3.38-16-2.44-22.65,2.19-5.51,3.82-4.39,10.6-3,16.53.78,3.18,1.37,6.7,3.15,9.3,8.55,12.46,7,26.19,6.72,39.9l-31.16-1.63c.26-9.86.47-19.76.82-29.66.47-13.17-3.17-24.22-15.33-31.19-6.52-3.74-15-3.59-20.69.55-6.4,4.65-7,10.82-4.68,17.71,3.56,10.75,4.52,22,5.25,33.1.75,11.54,1.51,23.67-14,27.93-4.71,1.3-6.65,8.81-4.78,13.81C2436.4,223.36,2439.18,228.29,2444.66,231Z" transform="translate(-19.93 -12.42)" style="stroke:#fff;stroke-miterlimit:10;stroke-width:14px"/><path d="M544.47,265.32c-2.73,22.12,2.55,42.8,11.45,62.79,1.87,4.21,3.78,8.55,6.52,12.2,8.79,11.72,19.93,19.63,34.79,22.75,17,3.57,33.09.1,47.11-7.8,11.84-6.67,21.7-17.4,31.26-27.46,14.43-15.18,25.23-32.8,33.18-52.41,8.37-20.64,10.21-41.6,7.76-63.39-1.46-12.88-3.28-25.83-3.14-38.74.08-7.47-.28-14.35-3-21.23-3-7.44-17.11-15.13-24.73-13.12-1.21.32-2.18,1.47-3.37,2-8.8,3.86-9.89,12.77-13.07,20.2-4,9.32-2.88,12.25,4.65,18.62,2.63,2.23,5.71,5.18,6.37,8.28,3.61,17,5.35,34.29,2.52,51.47-5,30.26-22.89,53.21-44.4,73.59A51.69,51.69,0,0,1,610.06,327c-5.29.78-11.1,1.67-14.61-3.65-4.38-6.63-9.46-13.27-11.81-20.68-5.06-15.94-7.1-32.44-3.9-49.25,1.6-8.43,2.08-17.1,4.09-25.43,4-16.59,5.44-34.11,18-47.73a20.9,20.9,0,0,0,4.9-13.63c-.42-10.9-16.69-22.46-27.74-20.8-12.51,1.89-19.83,11.75-18.5,24.69a25.24,25.24,0,0,1-.25,7.86c-2.46,11.34-5.45,22.56-7.74,33.92-3.2,15.92-5.94,31.92-8.88,47.89l1.35.21C544.8,262,544.67,263.67,544.47,265.32Z" transform="translate(-19.93 -12.42)" style="stroke:#fff;stroke-miterlimit:10;stroke-width:14px"/><path d="M736.8,393.63c2.39,1.16,4.88,2.1,7.29,3.21,8.11,3.74,17.38,1.46,21.52-6.38,6.11-11.55,9.84-23.79,8.14-37.23-.89-7.11-1.93-14.39-1.25-21.44.52-5.44-.09-12.46,7.09-15.2,6.77-2.58,13.7-4.78,20.32-7.69,14.21-6.25,29.57-10.31,42.08-19.92,19.61-15.07,29.81-41.71,5.32-63.94a85.78,85.78,0,0,0-52.87-22.71c-15-1.52-30,1.95-44.84,7.43-8.18,3-14,7.45-13.89,17.06,0,1.28-.16,3.06-1,3.79-7.89,7-8.15,15-5.68,24.93,1.25,5,1,11,2.71,16.33a55.91,55.91,0,0,1,2.42,23.41c-1.36,12.11-1.53,24.36-2.65,36.5-1.33,14.37-3.09,28.71-4.72,43.05C725.88,383.08,729.5,390.06,736.8,393.63Zm38.6-129.82c.77-6.78.89-13.64,1.43-22.8,8.16-5.61,18.36-4.07,28.25-1.33a28.76,28.76,0,0,1,12.47,7.37c4.86,5,3.92,10.52-2,14.31A75.68,75.68,0,0,1,801.19,268c-5,1.86-10.16,3-15.21,4.59C777.15,275.38,774.36,272.91,775.4,263.81Z" transform="translate(-19.93 -12.42)" style="stroke:#fff;stroke-miterlimit:10;stroke-width:14px"/><path d="M2185.47,232.35c1.78,14.36,5.6,28.37,15,39.5,10.85,12.89,31.79,24.15,47.65,7.81,1.58-1.64,4.25-2.29,5.67-4,6-7.29,12.39-6.23,19.17-1.37,16.36,11.74,33.93,9.6,51.59,4.12,11.45-3.55,20.15-11,26.26-20,3.53-22.85-5.82-41.22-17.4-59.09-3.16-1.47-7.06-2.69-10.25-4.92-6.89-4.8-13.75-4.12-20.59-.59-5.87,3-9.28,9.62-7.23,15s4.33,11,8.28,14.56c5.28,4.77,6.52,10.23,7.61,17.08-3.57,1.57-6.75,3.4-10.18,4.38-9.61,2.75-13,.46-15.27-9.48a24.07,24.07,0,0,0-9.39-14.62c-9.87-7.34-20.09-9.72-32.29-4.22-1.82,4.63-4.21,9.74-5.83,15.09-1.83,6-4.82,10.65-10.36,13-5.95-2.6-5.79-7.75-4.56-11.44,2.18-6.52.39-12.45-.54-18.58-2.59-17-10.64-24.34-27.85-25.5-6-.41-13.64,3.68-15.17,9.15-1.89,6.76-2.8,14.13,1.5,20.21C2184.38,222.8,2184.85,227.39,2185.47,232.35Z" transform="translate(-19.93 -12.42)" style="stroke:#fff;stroke-miterlimit:10;stroke-width:14px"/><path d="M1347.46,293.32c2,6.76,4.58,15.31,9.76,18.8,12.94,8.7,27.46,15.07,43.9,8.28,7.31-3,14.85-5.51,22.09-8.69a22.61,22.61,0,0,0,8-5.77c11.77-13.83,20.52-29.2,21.48-47.84.3-5.89-.87-11.85-.87-17.77s-3-10.27-7.72-13.11a79.22,79.22,0,0,0-15.27-7.22,11.76,11.76,0,0,0-8.56.78c-12.64,7.08-15.54,19-8.29,32.16,4,7.35,4,13.4-1.38,18.21-7.12,6.38-14.44,13-26.28,11.57a31.49,31.49,0,0,1-1.44-17.81c1.9-8.74,6.75-17.07,3-26.82-1.77-4.53-1.16-9.75-6.72-12.34-4.4-2.06-8.27-5.31-12.73-7.21-6.35-2.72-12,0-16,4.8-3.08,3.74-6.34,8.47-6.77,13a212.61,212.61,0,0,0-.27,32.42A107.47,107.47,0,0,0,1347.46,293.32Z" transform="translate(-19.93 -12.42)" style="stroke:#fff;stroke-miterlimit:10;stroke-width:14px"/><path d="M977.23,284.29c6.23.7,12.58.22,18.88.25,5.8,0,7.23,1.29,6.81,7-.36,5-1.44,9.87-1.86,14.83-.65,7.57-1.75,15,2.47,22.33s9.51,10.71,18.43,10.2c7.8-.45,10.42-6.4,12.81-12.22a28.63,28.63,0,0,0,1.58-9.79c.3-10.25.17-20.51.49-30.76.34-10.52,1.18-11.36,11.25-14.74,7.86-2.64,15.78-5.14,23.49-8.15,11.3-4.42,14.49-11.19,11.65-23.64a51.78,51.78,0,0,0-30.06-3.18c-9.71,1.73-9.64,1.26-14-7.61A18.42,18.42,0,0,0,1034,223c-2.58-2.06-5.64-3.52-8.36-5.41-8.44-5.9-16.79-4.09-23,3.71-4.79,6-6.26,11.8-4.75,19.25,1.41,7,.14,8.14-6.83,9a40.06,40.06,0,0,1-8.89-.1c-3.29-.33-6.52-1.5-9.8-1.59-6.59-.2-12.87,4.11-14,9.12C955.09,270.41,963.43,282.74,977.23,284.29Z" transform="translate(-19.93 -12.42)" style="stroke:#fff;stroke-miterlimit:10;stroke-width:14px"/><path d="M1757.43,273.36c-1,6.09,1.55,13.17,3.86,19.29,3.26,8.6,12.89,12.85,23.25,11.54,5-.63,11.19-7.41,12.15-14.33a125.36,125.36,0,0,0,1-17.86c-.07-10.22-.56-20.43-.82-29.13,4.65-14.55-2.42-24.28-10.12-32.89-3.62-4-10.14-6.34-15.76-7.56-7.4-1.6-16.9,4.18-17.89,11-1.11,7.58-3.18,15.07-.57,23.3C1756.27,248.46,1759.57,260.38,1757.43,273.36Z" transform="translate(-19.93 -12.42)" style="stroke:#fff;stroke-miterlimit:10;stroke-width:14px"/><path d="M2378.55,270.9c6.82,6,14.78,10.79,21.37,15.47,9.06-1.63,11.32-8.63,15.55-12.53-.66-5.31-2.84-10.43-1.47-14.29,3.48-9.81.71-19.09-.42-28.54-.3-2.52-1.22-5.74-3-7.17-9.41-7.46-19.86-12.91-32.18-13.4-4.51-.18-7.32,2-8,7-.91,6.56-2.51,13-3.35,17.22,1.82,7.13,4.23,12.36,4.24,17.59C2371.27,259.7,2373.34,266.29,2378.55,270.9Z" transform="translate(-19.93 -12.42)" style="stroke:#fff;stroke-miterlimit:10;stroke-width:14px"/><path d="M1795.72,200.07c10,3,22.5-5.59,24.9-16.52-1.25-5.28-1-11.81-4-15.61-7.51-9.25-9.24-9.42-20.39-12.95-9.61-3-23.23,5.2-23.36,14.13C1772.61,184.53,1780.79,195.59,1795.72,200.07Z" transform="translate(-19.93 -12.42)" style="stroke:#fff;stroke-miterlimit:10;stroke-width:14px"/><path d="M2403.56,203.43c6,.4,11-2.27,13-7,3.35-7.74,2.34-16.72-2.82-21.31-3.19-2.83-7.2-4.78-10.25-7.73-6.33-6.12-12.71-3.88-19.14-.72a12.39,12.39,0,0,0-6.84,14C2379.51,190.89,2393,202.71,2403.56,203.43Z" transform="translate(-19.93 -12.42)" style="stroke:#fff;stroke-miterlimit:10;stroke-width:14px"/><path d="M1128,667.62c-2,3.46-3.76,7-5.87,10.35-1.39,2.22-2.78,4.92-4.89,6.13-14.8,8.4-30,15-47.87,13.27-11.13-1.09-22.43-.54-33.86-.74-4.74,6.4-9.86,12.64-19.29,10.72a21.94,21.94,0,0,1-8-3c-13-8.93-17.26-20.56-13.08-35.29,5-17.69,3.14-34.65-5.36-51.07a44.87,44.87,0,0,1-4.55-15c-.81-6.81,1.27-12.71,7.59-17.06,4.77-3.28,8.49-8.06,12.85-12,5.48-4.93,12.33-6.06,19.29-5.59,4.56.3,9,1.93,13.57,2.86a68.84,68.84,0,0,0,7.83,1.2c9.52.83,19.07,1.37,28.56,2.43a22,22,0,0,1,8.24,3.14c6,3.47,11.76,7.23,17.53,11a33.07,33.07,0,0,1,7,5.42c6,6.84,13.23,13.2,17.13,21.15,4.85,9.9,7.4,21.07,9.9,31.93C1136.43,655.07,1131.48,661.33,1128,667.62Z" transform="translate(-19.93 -12.42)" style="fill:#fff;stroke:#fff;stroke-miterlimit:10;stroke-width:14px"/><path d="M1124.8,615.59c-3.9-8-11.13-14.31-17.13-21.15a33.07,33.07,0,0,0-7-5.42c-5.77-3.78-11.57-7.54-17.53-11a22,22,0,0,0-8.24-3.14c-9.49-1.06-19-1.6-28.56-2.43a68.84,68.84,0,0,1-7.83-1.2c-4.54-.93-9-2.56-13.57-2.86-7-.47-13.81.66-19.29,5.59-4.36,3.93-8.08,8.71-12.85,12-6.32,4.35-8.4,10.25-7.59,17.06a44.87,44.87,0,0,0,4.55,15c8.5,16.42,10.39,33.38,5.36,51.07-4.18,14.73.06,26.36,13.08,35.29a21.94,21.94,0,0,0,8,3c9.43,1.92,14.55-4.32,19.29-10.72,11.43.2,22.73-.35,33.86.74,17.86,1.77,33.07-4.87,47.87-13.27,2.11-1.21,3.5-3.91,4.89-6.13,2.11-3.35,3.92-6.89,5.87-10.35,3.53-6.29,8.48-12.55,6.75-20.1C1132.2,636.66,1129.65,625.49,1124.8,615.59Zm-36.86,24.94c-4,12.28-13.66,15.91-25.3,17-8.16.74-16.27,2.08-26.49,3.44-1-8.65-2.89-15.85-2.37-22.88s-7.77-13.33-.46-21.41a171.66,171.66,0,0,1,42.94,6.1c8.06,2.23,10,8.68,12.74,15.22C1088.68,638.74,1088.24,639.61,1087.94,640.53Z" transform="translate(-19.93 -12.42)" style="stroke:#fff;stroke-miterlimit:10;stroke-width:14px"/></svg>